<?xml version="1.0" encoding="utf-8"?>
<!-- Generator: Adobe Illustrator 24.1.1, SVG Export Plug-In . SVG Version: 6.00 Build 0)  -->
<svg version="1.1" id="Layer_1" xmlns="http://www.w3.org/2000/svg" xmlns:xlink="http://www.w3.org/1999/xlink" x="0px" y="0px"
	 viewBox="0 0 504.22 179.4" style="enable-background:new 0 0 504.22 179.4;" xml:space="preserve">
<style type="text/css">
	.st0{fill:#C800FF;}
	.st1{fill:#FFFFFF;}
</style>
<path class="st0" d="M440.29,179.4H332.73v-45.61h133.95V153C466.68,167.58,454.86,179.4,440.29,179.4z"/>
<g>
	<path class="st1" d="M57.79,34.29c0-6.65-5.62-10.49-12.27-10.49h-20.1v21.13h20.1C52.17,44.93,57.79,41.23,57.79,34.29
		 M53.21,96.66L38.43,67.1h-13v26.7c0,3.54-2.87,6.4-6.4,6.4H0V8.03c0-3.54,2.87-6.4,6.4-6.4h42.96c21.88,0,34.29,14.48,34.29,32.81
		c0,17.14-10.49,26.31-19.66,29.56l20.1,36.21H58.93C56.51,100.2,54.29,98.83,53.21,96.66"/>
	<path class="st1" d="M207.44,50.99C207.44,19.66,231.38,0,260.79,0c22.02,0,35.32,11.68,42.12,23.94l-16.48,8.58
		c-2.63,1.37-5.78,0.64-7.72-1.59c-5.95-6.82-16.3-11.54-28.5-6.09c-10.24,4.58-16.92,14.97-16.91,26.18
		c0.02,16.09,11.39,28.49,27.49,28.49c7.24,0,14.63-2.96,18.18-5.91v-7.68H263.2c-3.54,0-6.4-2.87-6.4-6.4V43.6h41.19
		c3.54,0,6.4,2.87,6.4,6.4v32.76c-10.64,11.68-24.98,19.21-43.6,19.21C231.38,101.98,207.44,82.32,207.44,50.99"/>
	<path class="st1" d="M379.98,69.91c0-4.88-3.55-8.87-9.76-8.87h-25.57v17.74h25.57C376.29,78.77,379.98,75.23,379.98,69.91
		 M378.06,31.18c0-4.73-3.55-8.13-8.72-8.13h-24.68v16.4h24.68C374.52,39.46,378.06,36.06,378.06,31.18 M319.24,100.2V8.03
		c0-3.54,2.87-6.4,6.4-6.4h49.46c19.51,0,28.82,12.71,28.82,25.13c0,12.27-7.54,20.54-16.85,22.61
		c10.49,1.63,18.77,11.67,18.77,24.09c0,14.34-9.61,26.75-28.97,26.75H319.24z"/>
	<path class="st1" d="M441.55,100.2V60.45L404.16,1.62h23.8c3.02,0,5.82,1.6,7.35,4.2l18.95,32.16l18.67-32.11
		c1.53-2.63,4.34-4.25,7.38-4.25h23.91l-37.24,58.82v39.76H441.55z"/>
	<path class="st0" d="M173.27,1.63c-3.54,0-6.4,2.87-6.4,6.4v51.39c0,9.77-4.98,17.24-14.56,19.43v22.89
		c27.28-2.13,40.28-18.7,40.28-41.58V1.63H173.27z"/>
	<path class="st0" d="M139.75,78.8c-9.6-2.24-14.41-9.68-14.41-19.39V8.03c0-3.54-2.86-6.4-6.4-6.4H99.48V60.3
		c0,22.54,12.92,39.17,40.28,41.4V78.8z"/>
	<path class="st1" d="M33.13,177.23l-8.99-13.88l-8.98,13.88c-0.54,0.84-1.47,1.34-2.47,1.34H0.42l15.84-23.24L1.44,133.24h12.17
		c1.01,0,1.96,0.52,2.49,1.38l8.04,12.82l7.91-12.81c0.54-0.87,1.48-1.4,2.5-1.4h12.22l-14.75,22.02l15.77,23.31H35.6
		C34.6,178.57,33.67,178.06,33.13,177.23"/>
	<path class="st1" d="M226.1,178.82v-42.11c0-1.61,1.31-2.92,2.92-2.92h30.09v10.13h-21.4v7.02h20.93v10.13h-20.93v7.63h18.48
		c1.61,0,2.92,1.31,2.92,2.92v7.2H226.1z"/>
	<path class="st1" d="M97.06,178.82v-42.11c0-1.61,1.31-2.92,2.92-2.92h8.69v34.91h15.17c1.61,0,2.93,1.31,2.93,2.92v7.2H97.06z"/>
	<path class="st1" d="M126.72,156.11c0-13.71,10.33-23.29,24.1-23.29c13.77,0,24.03,9.59,24.03,23.29
		c0,13.71-10.26,23.29-24.03,23.29C137.05,179.4,126.72,169.81,126.72,156.11 M163.04,156.11c0-7.36-4.79-13.03-12.22-13.03
		c-7.5,0-12.29,5.67-12.29,13.03c0,7.29,4.79,13.03,12.29,13.03C158.25,169.14,163.04,163.4,163.04,156.11"/>
	<path class="st1" d="M53.91,178.59v-42.11c0-1.62,1.31-2.92,2.92-2.92h19.63c10.13,0,15.66,6.82,15.66,14.99
		c0,8.1-5.54,14.92-15.66,14.92H65.52v12.2c0,1.61-1.31,2.92-2.92,2.92H53.91z M80.3,148.83c0.14-2.84-2.29-5.15-5.14-5.15h-9.64
		v9.65h9.38C77.91,153.34,80.16,151.69,80.3,148.83"/>
	<path class="st1" d="M204.67,176.97l-6.75-13.51h-5.94v12.2c0,1.61-1.31,2.92-2.92,2.92h-8.69v-42.11c0-1.62,1.31-2.92,2.92-2.92
		h19.63c9.99,0,15.66,6.62,15.66,14.99c0,7.83-4.79,12.02-8.98,13.5l9.18,16.54h-11.49C206.17,178.59,205.16,177.96,204.67,176.97
		 M206.76,148.41c-0.03-2.66-2.35-4.73-5.01-4.73h-9.77v9.65h9.18C204.21,153.34,206.79,151.63,206.76,148.41"/>
	<path class="st1" d="M291.08,176.97l-6.75-13.51h-5.94v12.2c0,1.61-1.31,2.92-2.92,2.92h-8.69v-42.11c0-1.62,1.31-2.92,2.92-2.92
		h19.63c9.99,0,15.66,6.62,15.66,14.99c0,7.83-4.79,12.02-8.98,13.5l9.18,16.54h-11.49C292.58,178.59,291.57,177.96,291.08,176.97
		 M293.17,148.41c-0.03-2.66-2.35-4.73-5.01-4.73h-9.78v9.65h9.18C290.62,153.34,293.2,151.63,293.17,148.41"/>
</g>
<g>
	<g>
		<path class="st1" d="M349.79,168.14v-24h11.8c4.39,0,6.84,2.73,6.84,6.12c0,3.02-1.94,5.04-4.17,5.5c2.55,0.4,4.64,2.95,4.64,5.9
			c0,3.71-2.48,6.48-6.98,6.48H349.79z M364.11,150.97c0-1.8-1.22-3.13-3.38-3.13H354v6.22h6.73
			C362.89,154.07,364.11,152.77,364.11,150.97z M364.58,161.08c0-1.8-1.26-3.31-3.67-3.31H354v6.66h6.91
			C363.21,164.43,364.58,163.17,364.58,161.08z"/>
		<path class="st1" d="M374.91,168.14v-24h16.44v3.71h-12.23v6.22h11.98v3.71h-11.98v6.66h12.23v3.71H374.91z"/>
		<path class="st1" d="M403.2,168.14v-20.29h-7.27v-3.71h18.75v3.71h-7.27v20.29H403.2z"/>
		<path class="st1" d="M434.5,168.14l-1.76-4.61h-11.01l-1.76,4.61h-4.79l9.43-24h5.25l9.43,24H434.5z M427.23,148.38l-4.32,11.44
			h8.64L427.23,148.38z"/>
	</g>
</g>
</svg>
